Coordinates
version=1
nRows=15
nColumns=33
inDegrees=yes

Units are S.I. units (second, meters, Newtons, ...)
Angles are in degrees.

endheader
time	ground_thorax_rot_x	ground_thorax_rot_y	ground_thorax_rot_z	ground_thorax_tx	ground_thorax_ty	ground_thorax_tz	clav_prot_r	clav_elev_r	scapula_abduction_r	scapula_elevation_r	scapula_upward_rot_r	scapula_winging_r	shoulder_elv_r	plane_of_elev_r	axial_rot_r	elbow_flexion_r	pro_sup_r	wrist_flex_r	wrist_dev_r	clav_prot_l	clav_elev_l	scapula_abduction_l	scapula_elevation_l	scapula_upward_rot_l	scapula_winging_l	shoulder_elv_l	plane_of_elev_l	axial_rot_l	elbow_flexion_l	pro_sup_l	wrist_flex_l	wrist_dev_l	
2.5000	2.570586	2.476768	12.043548	-0.122935	1.036761	0.024347	6.043282	11.842900	21.505908	7.380990	23.285224	-11.639336	12.095350	-74.489496	59.305334	52.018275	-26.585924	69.999996	-25.000000	10.301410	-4.608991	-15.035853	-21.056261	-43.152341	-1.172548	62.416805	-41.061815	-7.473729	66.979824	23.216708	0.431406	-25.000000	
2.5100	2.553124	2.597208	12.065102	-0.123048	1.036553	0.024512	5.861486	11.789378	21.255313	7.311052	23.380675	-11.566080	12.082340	-74.407267	59.401033	52.034124	-26.779232	69.999992	-25.000000	10.285191	-4.714237	-15.070115	-21.044333	-43.348717	-1.180061	62.585618	-40.757458	-7.331817	66.804597	23.196637	0.011007	-25.000000	
2.5200	2.527910	2.738040	12.079960	-0.123130	1.036375	0.024706	5.644029	11.727321	20.943719	7.233106	23.482306	-11.472500	12.097941	-74.314938	59.498289	52.078125	-27.018200	69.999986	-25.000000	10.278660	-4.831690	-15.139490	-21.045826	-43.601893	-1.180362	62.807420	-40.411057	-7.186635	66.606364	23.184066	-0.522557	-25.000000	
2.5300	2.487916	2.895189	12.107235	-0.123234	1.036130	0.024901	5.452040	11.663531	20.644275	7.167355	23.539857	-11.379308	12.162741	-74.226399	59.561202	52.208195	-27.245495	69.999975	-25.000000	10.298510	-4.938482	-15.252979	-21.052549	-43.846667	-1.161006	63.062528	-40.089630	-7.102789	66.487943	23.194904	-1.079282	-24.999999	
2.5400	2.446853	3.046302	12.126969	-0.123337	1.035850	0.025103	5.290161	11.604258	20.374602	7.114687	23.566075	-11.293033	12.291059	-74.139410	59.574542	52.416164	-27.425077	69.999955	-25.000000	10.329429	-5.045041	-15.375107	-21.043505	-44.056896	-1.132214	63.313938	-39.799924	-7.029504	66.415466	23.215810	-1.601977	-24.999999	
2.5500	2.404544	3.189422	12.138607	-0.123434	1.035546	0.025316	5.158645	11.549704	20.134444	7.075552	23.560188	-11.213478	12.487737	-74.054740	59.543194	52.704621	-27.550592	69.999920	-25.000000	10.372687	-5.153118	-15.509350	-21.018704	-44.236427	-1.092954	63.560888	-39.542306	-6.965123	66.381715	23.244723	-2.090453	-24.999998	
2.5600	2.373020	3.315725	12.143922	-0.123531	1.035232	0.025537	5.071588	11.497307	19.935789	7.053585	23.503438	-11.142213	12.796421	-73.981081	59.470203	53.070647	-27.572673	69.999856	-25.000000	10.429150	-5.272246	-15.657868	-20.969595	-44.386641	-1.041566	63.780463	-39.323417	-6.898453	66.381844	23.275267	-2.521260	-24.999997	
2.5700	2.349768	3.427086	12.148284	-0.123614	1.034935	0.025760	5.016676	11.448210	19.770944	7.043796	23.415099	-11.078608	13.180323	-73.917627	59.384058	53.478517	-27.515302	69.999742	-25.000000	10.495624	-5.396703	-15.818664	-20.907094	-44.519280	-0.981387	63.974082	-39.133828	-6.829265	66.404116	23.297637	-2.900310	-24.999995	
2.5800	2.335971	3.523331	12.154345	-0.123675	1.034663	0.025976	4.987818	11.404722	19.635805	7.045064	23.305011	-11.022620	13.623933	-73.867847	59.291242	53.908712	-27.395170	69.999537	-25.000000	10.570040	-5.520667	-15.988545	-20.837660	-44.636110	-0.914695	64.139161	-38.970108	-6.761517	66.457954	23.304641	-3.224847	-24.999990	
2.5900	2.321039	3.611002	12.152624	-0.123691	1.034403	0.026189	4.955412	11.377230	19.507679	7.052407	23.217572	-10.972035	14.065973	-73.825588	59.210360	54.355351	-27.280466	69.999171	-25.000000	10.649588	-5.628242	-16.164457	-20.779918	-44.744418	-0.845516	64.296204	-38.814667	-6.696865	66.555109	23.278453	-3.514136	-24.999983	
2.6000	2.307417	3.691502	12.143681	-0.123665	1.034167	0.026396	4.919796	11.364128	19.387559	7.064538	23.152534	-10.926967	14.506594	-73.790284	59.143774	54.814886	-27.173508	69.998515	-25.000000	10.734170	-5.721367	-16.344419	-20.729693	-44.838923	-0.773635	64.441137	-38.664107	-6.630634	66.699675	23.207766	-3.758247	-24.999970	
2.6100	2.294693	3.764407	12.115026	-0.123594	1.033941	0.026604	4.878173	11.373119	19.282180	7.082366	23.127074	-10.891743	14.928160	-73.761232	59.090660	55.312489	-27.089076	69.997339	-25.000000	10.822371	-5.799598	-16.517938	-20.676679	-44.895530	-0.699650	64.565769	-38.521866	-6.548173	66.898217	23.058240	-3.912643	-24.999946	
2.6200	2.284377	3.835648	12.068556	-0.123496	1.033750	0.026815	4.833335	11.391447	19.183869	7.101853	23.120774	-10.861229	15.367643	-73.731361	59.054861	55.853059	-27.018410	69.995235	-25.000000	10.921930	-5.876040	-16.701291	-20.611785	-44.922519	-0.616651	64.671596	-38.377748	-6.443715	67.142325	22.814677	-3.988792	-24.999903	
2.6300	2.274414	3.907170	12.010049	-0.123383	1.033595	0.027038	4.785797	11.414488	19.088235	7.121809	23.125463	-10.832992	15.842491	-73.696488	59.041482	56.447465	-26.955435	69.991458	-25.000000	11.037540	-5.954742	-16.904139	-20.532923	-44.924344	-0.520729	64.762201	-38.229358	-6.315475	67.424338	22.471100	-3.992311	-24.999826	
2.6400	2.266911	3.998567	11.957060	-0.123294	1.033502	0.027266	4.744637	11.412357	18.972431	7.136532	23.081837	-10.792192	16.460175	-73.650434	59.093888	57.106748	-26.866411	69.984714	-25.000000	11.197218	-6.057423	-17.184534	-20.430470	-44.928307	-0.388688	64.827834	-38.063862	-6.162459	67.733217	21.964378	-3.938332	-24.999688	
